{"title":"The Haunting Of Ellie Rose 2015 Movies HDRip XviD +Sample ☻rDX☻","uid":13681006,"size":740783050,"categoryP":"video","categoryS":"movies","magnet":"?xt=urn:btih:620a34672ec316d50604b21af2a0ca88622cfb37&amp;dn=The+Haunting+Of+Ellie+Rose+2015+Movies+HDRip+XviD+%2BSample+%E2%98%BBrDX%E2%98%BB&amp;tr=udp%3A%2F%2Ftracker.leechers-paradise.org%3A6969&amp;tr=udp%3A%2F%2Fzer0day.ch%3A1337&amp;tr=udp%3A%2F%2Fopen.demonii.com%3A1337&amp;tr=udp%3A%2F%2Ftracker.coppersurfer.tk%3A6969&amp;tr=udp%3A%2F%2Fexodus.desync.com%3A6969","seeders":0,"leechers":1,"uploader":"basicssom","files":2,"time":1456465220,"description":"----------------------------------------------------------------\r\nThe Haunting Of Ellie Rose 2015 English Movies HDRip XviD AAC with Sample ~ ☻rDX☻\r\n\r\nSCREEN SHOTS &amp; POSTER:\r\n  \nhttp://mobileshosting.com/2016/2/tv/index.htm  \nhttp://mobileshosting.com/2016/2/tv/1.html  \nhttp://mobileshosting.com/2016/2/tv/2.html  \nhttp://mobileshosting.com/2016/2/tv/3.html  \nhttp://mobileshosting.com/2016/2/tv/4.html  \nhttp://mobileshosting.com/2016/2/tv/5.html  \nhttp://mobileshosting.com/2016/2/tv/6.html  \nhttp://mobileshosting.com/2016/2/tv/7.html  \nhttp://mobileshosting.com/2016/2/tv/8.html  \nhttp://mobileshosting.com/2016/2/tv/9.html  \nhttp://mobileshosting.com/2016/2/tv/10.html\r\n\r\nFormat                                   : Matroska\r\nFormat version                           : Version 4 / Version 2\r\nFile size                                : 694 MiB\r\nDuration                                 : 1h 24mn\r\nOverall bit rate                         : 1 153 Kbps\r\nMovie name                               : The Haunting Of Ellie Rose 2015 English Movies HDRip XviD AAC ☻rDX☻\r\n\r\nVideo\r\nID                                       : 1\r\nFormat                                   : MPEG-4 Visual\r\nFormat profile                           : Advanced   \r\nFormat settings, BVOP                    : Yes\r\nFormat settings, QPel                    : No\r\nFormat settings, GMC                     : No warppoints\r\nFormat settings, Matrix                  : Default (H.263)\r\nCodec ID                                 : V_MS/VFW/FOURCC / XVID\r\nCodec ID/Hint                            : XviD\r\nDuration                                 : 1h 24mn\r\nBit rate                                 : 1 002 Kbps\r\nWidth                                    : 640 pixels\r\nHeight                                   : 272 pixels\r\nDisplay aspect ratio                     : 2.35:1\r\nFrame rate mode                          : Constant\r\nFrame rate                               : 23.976 fps\r\nColor space                              : YUV\r\nChroma subsampling                       : 4:2:0\r\nBit depth                                : 8 bits\r\nScan type                                : Progressive\r\nCompression mode                         : Lossy\r\nBits/(Pixel*Frame)                       : 0.240\r\nStream size                              : 603 MiB (87%)\r\nTitle                                    : ☻rDX☻\r\nWriting library                          : XviD 67\r\nDefault                                  : Yes\r\nForced                                   : No\r\n\r\nAudio\r\nID                                       : 2\r\nFormat                                   : MPEG Audio\r\nFormat version                           : Version 1\r\nFormat profile                           : Layer 3\r\nMode                                     : Joint stereo\r\nMode extension                           : MS Stereo\r\nCodec ID                                 : A_MPEG/L3\r\nCodec ID/Hint                            : MP3\r\nDuration                                 : 1h 24mn\r\nBit rate mode                            : Constant\r\nBit rate                                 : 128 Kbps\r\nChannel(s)                               : 2 channels\r\nSampling rate                            : 48.0 KHz\r\nCompression mode                         : Lossy\r\nStream size                              : 77.0 MiB (11%)\r\nTitle                                    : ☻rDX☻\r\nWriting library                          : LAME3.99r\r\nEncoding settings                        : -m j -V 4 -q 3 -lowpass 17 -b 128\r\nDefault                                  : Yes\r\nForced                                   : No\r\n\r\nIMDB                                      \nhttp://www.imdb.com/title/tt1517228/","torrent":{"xt":"urn:btih:620a34672ec316d50604b21af2a0ca88622cfb37","amp;dn":"The+Haunting+Of+Ellie+Rose+2015+Movies+HDRip+XviD+%2BSample+%E2%98%BBrDX%E2%98%BB","amp;tr":["udp%3A%2F%2Ftracker.leechers-paradise.org%3A6969","udp%3A%2F%2Fzer0day.ch%3A1337","udp%3A%2F%2Fopen.demonii.com%3A1337","udp%3A%2F%2Ftracker.coppersurfer.tk%3A6969","udp%3A%2F%2Fexodus.desync.com%3A6969"],"infoHash":"620a34672ec316d50604b21af2a0ca88622cfb37","infoHashBuffer":{"type":"Buffer","data":[98,10,52,103,46,195,22,213,6,4,178,26,242,160,202,136,98,44,251,55]},"announce":[],"urlList":[]}}